<mxfile host="app.diagrams.net" modified="2023-08-02T03:05:26.940Z" agent="Mozilla/5.0 (Macintosh; Intel Mac OS X 10_15_7) AppleWebKit/537.36 (KHTML, like Gecko) Chrome/115.0.0.0 Safari/537.36" version="21.6.3" etag="MOyQjzSyQH92Em_7T47c" type="github">
  <diagram name="Page-1" id="ggwPt69_MA4AWjFWgfQu">
    <mxGraphModel>
      <root>
        <mxCell id="0" />
        <mxCell id="1" parent="0" />
      </root>
    </mxGraphModel>
  </diagram>
</mxfile>
